<?xml version="1.0" encoding="utf-8"?>
<!-- Generator: Adobe Illustrator 18.1.1, SVG Export Plug-In . SVG Version: 6.00 Build 0)  -->
<!DOCTYPE svg PUBLIC "-//W3C//DTD SVG 1.1//EN" "http://www.w3.org/Graphics/SVG/1.1/DTD/svg11.dtd">
<svg version="1.1" id="Layer_1" xmlns="http://www.w3.org/2000/svg" xmlns:xlink="http://www.w3.org/1999/xlink" x="0px" y="0px"
	 viewBox="0 0 255 255" style="enable-background:new 0 0 255 255;" xml:space="preserve">
<style type="text/css">
	.st0{fill:#4F9AD4;}
</style>
<path class="st0" d="M41.3,108.5c0,0-1.8-4.3-1.8-9.7s1.8-9.7,1.8-9.7l0,0l0,0h0c-0.3,0-36.6,9.7-36.6,9.7S41,108.5,41.3,108.5
	L41.3,108.5z"/>
<path class="st0" d="M213.2,89.1c0,0,1.8,4.3,1.8,9.7s-1.8,9.7-1.8,9.7l0,0l0,0h0c0.3,0,36.6-9.7,36.6-9.7S213.5,89.1,213.2,89.1
	L213.2,89.1z"/>
<circle class="st0" cx="89.7" cy="98.2" r="11"/>
<path class="st0" d="M194.2,84.7c1.4,0,2.6,1.2,2.6,2.6v23.1c0,1.4-1.1,2.6-2.6,2.6h-134c-1.4,0-2.6-1.1-2.6-2.6V87.3
	c0-1.4,1.2-2.6,2.6-2.6H194.2 M194.2,71.5h-134c-8.7,0-15.7,7-15.7,15.7v23.1c0,8.7,7,15.7,15.7,15.7h134c8.7,0,15.7-7,15.7-15.7
	V87.3C209.9,78.6,202.9,71.5,194.2,71.5L194.2,71.5z"/>
<path class="st0" d="M126.3,165.6c-19.8,0-36.6,30-36.6,65.5c0,4,0.2,8,0.6,11.9c10.2,3.2,22.6,5.1,36,5.1s25.8-1.9,36-5.1
	c0.4-3.9,0.6-7.8,0.6-11.9C162.9,195.5,146.1,165.6,126.3,165.6z M104.2,229.4c0,2.4-1.9,4.3-4.3,4.3c-2.4,0-4.3-1.9-4.3-4.3v-15.1
	c0-2.4,1.9-4.3,4.3-4.3c2.4,0,4.3,1.9,4.3,4.3V229.4z M121.6,229.4c0,2.4-1.9,4.3-4.3,4.3s-4.3-1.9-4.3-4.3v-15.1
	c0-2.4,1.9-4.3,4.3-4.3c2.4,0,4.3,1.9,4.3,4.3V229.4z M139,229.4c0,2.4-1.9,4.3-4.3,4.3c-2.4,0-4.3-1.9-4.3-4.3v-15.1
	c0-2.4,1.9-4.3,4.3-4.3s4.3,1.9,4.3,4.3V229.4z M156.4,229.4c0,2.4-1.9,4.3-4.3,4.3c-2.4,0-4.3-1.9-4.3-4.3v-15.1
	c0-2.4,1.9-4.3,4.3-4.3c2.4,0,4.3,1.9,4.3,4.3V229.4z"/>
<path class="st0" d="M63.9,114.8V126h90.4c1.7,0,3,1.4,3,3c0,1.7-1.4,3-3,3H63.9v88c0,7.5,6.7,14.3,17.4,19.3
	c-0.2-2.8-0.3-5.6-0.3-8.4c0-41.6,19.9-74.1,45.3-74.1c25.4,0,45.3,32.5,45.3,74.1c0,2.9-0.1,5.7-0.3,8.4
	c10.8-5,17.4-11.8,17.4-19.3V114.8H63.9z"/>
<path class="st0" d="M126.3,58.2c-2.2,0-3.9-1.8-3.9-3.9c0-2.2,1.8-3.9,3.9-3.9h61.9c-0.7-2.2-1.5-4.3-2.4-6.4H149
	c-3.6,0-6.6-2.9-6.6-6.6c0-3.6,2.9-6.6,6.6-6.6h29.2c-11.9-16.1-30.7-26.2-51.9-26.2c-33.2,0-60.6,24.8-64.7,58.6H191
	c-0.2-1.7-0.5-3.4-0.8-5L126.3,58.2L126.3,58.2z M130.8,30.5c3.8,0,6.9,3.1,6.9,6.9c0,3.8-3.1,6.9-6.9,6.9c-3.8,0-6.9-3.1-6.9-6.9
	C124,33.5,127,30.5,130.8,30.5z"/>
<g>
</g>
<g>
</g>
<g>
</g>
<g>
</g>
<g>
</g>
</svg>
